<?xml version="1.0" encoding="UTF-8"?>
<!-- Generated by Pixelmator Pro 3.7.1 -->
<svg width="178" height="197" viewBox="0 0 178 197" xmlns="http://www.w3.org/2000/svg">
    <linearGradient id="linearGradient1" x1="115.425155" y1="169.77832" x2="86.055251" y2="6.890095" gradientUnits="userSpaceOnUse">
        <stop offset="0.236376" stop-color="#9333ea" stop-opacity="1"/>
        <stop offset="0.678256" stop-color="#2563eb" stop-opacity="1"/>
        <stop offset="0.992172" stop-color="#25ffd3" stop-opacity="1"/>
    </linearGradient>
    <filter id="filter1" x="0" y="0" width="178" height="197" filterUnits="userSpaceOnUse" primitiveUnits="userSpaceOnUse" color-interpolation-filters="sRGB">
        <feGaussianBlur stdDeviation="10.119254"/>
        <feOffset dx="-0" dy="26.743743" result="offsetblur"/>
        <feFlood flood-color="#201650" flood-opacity="0.460511"/>
        <feComposite in2="offsetblur" operator="in"/>
        <feMerge>
            <feMergeNode/>
            <feMergeNode in="SourceGraphic"/>
        </feMerge>
    </filter>
    <path id="Path-copy-copy-2" fill="url(#linearGradient1)" fill-rule="evenodd" stroke="none" opacity="0.918167" filter="url(#filter1)" d="M 140.237137 75.805069 L 158.864685 70.603539 C 162.278717 69.056366 161.082687 65.059036 158.864685 64.392258 L 140.237137 59.190735 C 139.080551 58.897263 138.2117 58.03418 137.923935 56.877686 L 132.722549 38.250122 C 131.853683 35.074036 127.37999 35.074036 126.511269 38.250122 L 121.309731 56.877686 C 120.875298 58.034225 120.153137 58.90303 118.996674 59.190735 L 100.369102 64.392258 C 97.192947 65.261093 97.192947 69.734802 100.369102 70.603539 L 118.996674 75.805069 C 120.153267 76.23951 121.021996 76.961632 121.309731 78.118118 L 126.511269 96.745689 C 127.380135 99.921829 131.853683 99.921829 132.722549 96.745689 L 137.923935 78.118118 C 138.358521 76.961578 139.080551 76.092796 140.237137 75.805069 Z M 73.719467 121.60984 L 98.558754 114.676453 C 102.743858 113.519974 102.743858 107.601967 98.704712 106.298889 L 73.865356 99.36541 C 72.421341 98.931 71.264755 97.77449 70.830254 96.330276 L 63.896946 71.491173 C 62.740364 67.305222 56.675758 67.305222 55.519157 71.491173 L 48.585796 96.330276 C 48.151291 97.77449 46.994843 98.931 45.550762 99.36541 L 20.711475 106.298889 C 16.525572 107.455437 16.525572 113.519974 20.711475 114.676453 L 45.404873 121.60984 C 46.848953 122.044365 48.005421 123.200912 48.439907 124.645088 L 55.373287 149.484161 C 56.529869 153.670258 62.594532 153.670258 63.750999 149.484161 L 70.68438 124.645088 C 71.118843 123.200912 72.275452 122.044365 73.719467 121.60984 Z M 76.760094 17.838013 L 63.690372 21.468155 C 61.393841 22.195862 61.393841 25.339233 63.691086 25.939545 L 76.760811 29.692657 C 77.488792 29.933685 78.093773 30.538757 78.334839 31.266678 L 82.087975 44.336441 C 82.811058 46.633591 85.959198 46.633591 86.564194 44.336441 L 90.194344 31.2715 C 90.435402 30.543549 91.040405 29.938538 91.768311 29.697464 L 104.955528 25.944366 C 107.252663 25.221252 107.252663 22.073166 104.955528 21.468155 L 91.890602 17.838013 C 91.162582 17.59697 90.557602 16.991882 90.316505 16.263962 L 86.563385 3.194199 C 85.840302 0.897064 82.692238 0.897064 82.087189 3.194199 L 78.334053 16.263962 C 78.093056 16.991913 77.487999 17.596939 76.760094 17.838013 Z"/>
</svg>
