<?xml version="1.0" encoding="UTF-8"?>
<!-- Generated by Pixelmator Pro 3.7.1 -->
<svg width="211" height="231" viewBox="0 0 211 231" xmlns="http://www.w3.org/2000/svg">
    <linearGradient id="linearGradient1" x1="111.737774" y1="6.005104" x2="171.638749" y2="223.058428" gradientUnits="userSpaceOnUse">
        <stop offset="0.236376" stop-color="#9333ea" stop-opacity="1"/>
        <stop offset="0.686029" stop-color="#ffffff" stop-opacity="1"/>
    </linearGradient>
    <filter id="filter1" x="0" y="0" width="211" height="231" filterUnits="userSpaceOnUse" primitiveUnits="userSpaceOnUse" color-interpolation-filters="sRGB">
        <feGaussianBlur stdDeviation="10.119254"/>
        <feOffset dx="-0" dy="26.743743" result="offsetblur"/>
        <feFlood flood-color="#201650" flood-opacity="0.199064"/>
        <feComposite in2="offsetblur" operator="in"/>
        <feMerge>
            <feMergeNode/>
            <feMergeNode in="SourceGraphic"/>
        </feMerge>
    </filter>
    <path id="Path-copy-copy-3" fill="url(#linearGradient1)" fill-rule="evenodd" stroke="none" filter="url(#filter1)" d="M 166.882874 92.793716 L 189.643631 86.438034 C 193.815186 84.547562 192.35379 79.663269 189.643631 78.848541 L 166.882874 72.492874 C 165.46965 72.134277 164.40802 71.079681 164.056396 69.666595 L 157.700882 46.905823 C 156.639252 43.024979 151.172897 43.024979 150.11142 46.905823 L 143.755722 69.666595 C 143.224884 71.079758 142.342499 72.141327 140.929428 72.492874 L 118.16864 78.848541 C 114.287735 79.910156 114.287735 85.376526 118.16864 86.438034 L 140.929428 92.793716 C 142.342651 93.324539 143.404144 94.206909 143.755722 95.619995 L 150.11142 118.380783 C 151.173065 122.261665 156.639252 122.261665 157.700882 118.380783 L 164.056396 95.619995 C 164.587418 94.206833 165.46965 93.145279 166.882874 92.793716 Z M 85.605804 148.761963 L 115.956604 140.290146 C 121.07032 138.87706 121.07032 131.645935 116.134941 130.053711 L 85.784065 121.581779 C 84.01963 121.050987 82.606422 119.637863 82.0755 117.873199 L 73.60379 87.522614 C 72.190575 82.407867 64.780319 82.407867 63.367077 87.522614 L 54.895294 117.873199 C 54.36438 119.637863 52.951328 121.050987 51.186829 121.581779 L 20.836023 130.053711 C 15.721323 131.466888 15.721323 138.87706 20.836023 140.290146 L 51.008568 148.761963 C 52.773067 149.292908 54.186142 150.70607 54.717033 152.470703 L 63.188843 182.821243 C 64.602058 187.936188 72.012383 187.936188 73.425461 182.821243 L 81.897263 152.470703 C 82.428131 150.70607 83.84137 149.292908 85.605804 148.761963 Z M 89.321106 21.964508 L 73.351379 26.400146 C 70.545273 27.289322 70.545273 31.130173 73.352249 31.863678 L 89.321976 36.44957 C 90.211487 36.744049 90.950706 37.483383 91.245262 38.372833 L 95.831169 54.342606 C 96.714699 57.14946 100.561363 57.14946 101.300606 54.342606 L 105.736237 38.378723 C 106.030785 37.489258 106.770027 36.75 107.659447 36.455429 L 123.772736 31.869568 C 126.579575 30.986008 126.579575 27.139404 123.772736 26.400146 L 107.808876 21.964508 C 106.919312 21.669998 106.180092 20.930649 105.885506 20.041199 L 101.299614 4.071426 C 100.416092 1.264587 96.569511 1.264587 95.830208 4.071426 L 91.244301 20.041199 C 90.949829 20.930695 90.210526 21.669952 89.321106 21.964508 Z"/>
</svg>
