<?xml version="1.0" encoding="UTF-8"?>
<!-- Generated by Pixelmator Pro 3.7.1 -->
<svg width="491" height="150" viewBox="0 0 491 150" xmlns="http://www.w3.org/2000/svg">
    <defs>
        <linearGradient id="thrpyGradient" x1="0%" y1="0%" x2="100%" y2="0%">
            <stop offset="0%" style="stop-color:#06b6d4;stop-opacity:1" /> <!-- Cyan -->
            <stop offset="50%" style="stop-color:#2563eb;stop-opacity:1" /> <!-- Blue -->
            <stop offset="100%" style="stop-color:#9333ea;stop-opacity:1" /> <!-- Purple -->
        </linearGradient>
    </defs>
    <path id="Path-copy" fill="url(#thrpyGradient)" fill-rule="evenodd" stroke="none" d="M 480.760071 44.193016 L 489.395264 46.604286 C 490.802277 47.00444 490.802277 49.080917 489.395264 49.483665 L 480.760071 51.894928 C 480.223907 52.030975 479.821167 52.431076 479.687775 52.967201 L 477.27652 61.602394 C 476.873749 63.074753 474.799896 63.074753 474.397156 61.602394 L 471.98587 52.967201 C 471.784485 52.431053 471.449738 52.028305 470.913605 51.894928 L 462.278412 49.483665 C 460.806061 49.080894 460.806061 47.007027 462.278412 46.604286 L 470.913605 44.193016 C 471.449768 43.991631 471.852509 43.656868 471.98587 43.12075 L 474.397156 34.48555 C 474.799927 33.013191 476.873779 33.013191 477.27652 34.48555 L 479.687775 43.12075 C 479.889191 43.656898 480.223938 44.059639 480.760071 44.193016 Z M 452.910889 16.463928 L 464.425659 19.67804 C 466.365723 20.214172 466.365723 22.957581 464.493286 23.561646 L 452.978516 26.775818 C 452.309082 26.977173 451.772949 27.513306 451.571533 28.1828 L 448.357422 39.69751 C 447.821289 41.638 445.009888 41.638 444.473755 39.69751 L 441.259644 28.1828 C 441.058228 27.513306 440.522095 26.977173 439.852661 26.775818 L 428.337891 23.561646 C 426.397461 23.025513 426.397461 20.214172 428.337891 19.67804 L 439.785034 16.463928 C 440.454468 16.262512 440.990601 15.726379 441.192017 15.056885 L 444.406128 3.542175 C 444.942261 1.601685 447.753662 1.601685 448.289795 3.542175 L 451.503906 15.056885 C 451.705322 15.726379 452.241455 16.262512 452.910889 16.463928 Z M 187.650024 120.789978 C 190.404175 120.789978 192.948486 120.622986 195.282959 120.28894 C 195.086792 121.564392 195.068848 122.831482 195.228882 124.090271 C 195.595581 126.973511 196.494995 129.688416 197.927124 132.234985 C 199.359375 134.781494 200.935791 137.020447 202.656372 138.951843 C 204.376831 140.88324 205.839844 142.382385 207.045776 143.449158 L 211.007935 146.954224 C 212.098999 147.919373 213.3479 148.358765 214.754883 148.272644 C 216.161621 148.186584 219.871582 144.02179 219.788818 142.669006 C 219.705933 141.316284 219.090332 140.131897 217.941895 139.115967 L 215.35791 136.830017 C 213.922241 135.560059 212.317261 133.96106 210.542603 132.032959 C 208.768066 130.104919 207.288818 127.900696 206.105103 125.42041 C 204.936157 122.971558 204.522583 120.317566 204.864258 117.458435 C 207.639404 116.126831 209.932251 114.496521 211.742432 112.567505 C 214.080811 110.075806 215.767456 107.335022 216.80249 104.344971 C 217.837524 101.35498 218.35498 98.32666 218.35498 95.26001 C 218.35498 92.193298 217.837524 89.165039 216.80249 86.174988 C 215.767456 83.184998 214.080811 80.444153 211.742432 77.952515 C 209.404175 75.460815 206.260864 73.467529 202.3125 71.972534 C 198.364136 70.477478 193.476685 69.72998 187.650024 69.72998 L 161.429932 69.72998 C 159.973389 69.72998 158.746704 70.247498 157.75 71.282471 C 156.753296 72.317505 156.255005 73.563354 156.255005 75.02002 L 156.255005 142.400024 C 156.255005 143.117737 156.375977 143.051331 156.61792 142.918457 C 156.867065 142.781616 157.244385 142.574402 157.75 143.080017 C 158.746704 144.07666 164.132446 144.07666 165.16748 143.080017 C 165.69249 142.574417 166.084335 142.781601 166.34314 142.918457 C 166.59436 143.051331 166.719971 143.117737 166.719971 142.400024 L 166.719971 120.789978 L 187.650024 120.789978 Z M 27.459881 144.290863 L 27.459839 144.290894 L 27.459747 144.290939 C 27.216522 144.426163 27.094971 144.493744 27.094971 143.743164 L 27.094971 80.19635 L 3.63501 80.19635 C 2.255005 80.19635 2.10498 79.716431 1.184998 78.756836 C 0.265015 77.797241 0.265015 72.499084 1.184998 71.499451 C 2.10498 70.499817 2.255005 70 3.63501 70 L 60.905029 70 C 62.285034 70 63 71.31781 63 71.31781 L 63 78.58136 C 63 78.58136 62.285034 80.19635 60.905029 80.19635 L 37.560059 80.19635 L 37.560059 143.743164 C 37.560059 144.493805 37.433727 144.426147 37.181152 144.290894 L 37.18108 144.290848 C 36.922291 144.152298 36.531078 143.942856 36.007446 144.468872 C 34.972534 145.508423 29.58667 145.508423 28.589966 144.468872 C 28.085722 143.942841 27.709026 144.152313 27.459881 144.290863 Z M 76.603882 142.97522 C 76.099251 142.449234 75.722672 142.664795 75.473999 142.807129 C 75.232422 142.945374 75.111694 143.014465 75.111694 142.267822 L 75.111694 71.574768 C 75.111694 70.828064 75.232422 70.892334 75.473999 71.020935 C 75.722687 71.153275 76.099266 71.353676 76.603882 70.807556 C 77.598511 69.730835 82.974121 69.730835 84.007202 70.807556 C 84.53125 71.353699 84.922363 71.153259 85.180542 71.020874 C 85.431274 70.892334 85.556641 70.828125 85.556641 71.574768 L 85.556641 110.558472 L 129.058228 110.558472 L 129.058228 71.574768 C 129.058228 70.828064 129.179077 70.892395 129.420532 71.020935 C 129.669189 71.153259 130.045898 71.353699 130.550415 70.807556 C 131.545166 69.730835 136.920776 69.730835 137.953735 70.807556 C 138.477783 71.353699 138.868896 71.153259 139.127075 71.020935 C 139.37793 70.892334 139.503296 70.828064 139.503296 71.574768 L 139.503296 143.308105 C 139.503296 144.054749 139.37793 143.985657 139.127075 143.847412 C 138.868896 143.705078 138.477783 143.489502 137.953735 144.015503 C 136.920776 145.052307 131.545166 145.052307 130.550415 144.015503 C 130.045898 143.489563 129.669189 143.705078 129.420532 143.847412 C 129.179077 143.985657 129.058228 144.05481 129.058228 143.308105 L 129.058228 120.727295 L 85.556641 120.727295 L 85.556641 142.267822 C 85.556641 143.014465 85.431274 142.945374 85.180542 142.807129 C 84.922363 142.664795 84.53125 142.449219 84.007202 142.97522 C 82.974121 144.012024 77.598511 144.012024 76.603882 142.97522 Z M 233.75 143.080017 C 232.753296 142.083313 232.255005 142.856689 232.255005 141.400024 L 232.255005 75.02002 C 232.255005 73.563354 232.753296 72.317505 233.75 71.282471 C 234.746704 70.247498 235.973389 69.72998 237.429932 69.72998 L 263.650024 69.72998 C 269.476685 69.72998 274.364136 70.477478 278.3125 71.972534 C 282.260864 73.467529 285.404175 75.460815 287.742432 77.952515 C 290.080811 80.444153 291.767456 83.184998 292.80249 86.174988 C 293.837524 89.165039 294.35498 92.193298 294.35498 95.26001 C 294.35498 98.32666 293.837524 101.35498 292.80249 104.344971 C 291.767456 107.335022 290.080811 110.075806 287.742432 112.567505 C 285.404175 115.059204 282.260864 117.05249 278.3125 118.547485 C 274.364136 120.04248 269.476685 120.789978 263.650024 120.789978 L 242.719971 120.789978 L 242.719971 141.400024 C 242.719971 142.856689 242.202515 142.083313 241.16748 143.080017 C 240.132446 144.07666 234.746704 144.07666 233.75 143.080017 Z M 330.017456 143.080017 C 329.492432 142.574402 329.100586 142.781616 328.841919 142.918457 C 328.590576 143.051331 328.464966 143.117737 328.464966 142.400024 L 328.464966 116.075012 L 300.97998 77.549988 C 300.610474 76.949463 300.715332 76.698059 300.857056 76.358276 C 300.950562 76.134155 301.060059 75.871582 301.060059 75.445007 C 301.060059 73.988342 304.66333 70.155029 306.119995 70.155029 C 306.238281 70.155029 306.351196 70.154602 306.459351 70.154114 C 308.104736 70.147583 308.640991 70.145454 309.719971 71.799988 L 333.755005 106.76001 L 357.790039 71.799988 C 358.869019 70.145454 359.405273 70.147583 361.050659 70.154114 C 361.158813 70.154602 361.271851 70.155029 361.390015 70.155029 C 362.92334 70.155029 366.526611 73.988342 366.449951 75.445007 C 366.449951 75.871582 366.559448 76.134155 366.652954 76.358276 C 366.794678 76.698059 366.899536 76.949463 366.530029 77.549988 L 338.929932 116.075012 L 338.929932 142.400024 C 338.929932 143.117737 338.80896 143.051331 338.567017 142.918457 C 338.317993 142.781616 337.940674 142.574402 337.435059 143.080017 C 336.438354 144.07666 331.05249 144.07666 330.017456 143.080017 Z M 364.062622 142.746338 C 362.895386 141.579041 362.895386 134.893982 364.062622 133.726746 C 365.229858 132.559448 372.339478 132.559448 373.506714 133.726746 C 374.67395 134.893982 374.67395 141.579041 373.506714 142.746338 C 372.339478 143.913574 365.229858 143.913574 364.062622 142.746338 Z M 407.757202 143.23999 C 404.71521 143.23999 401.86792 142.603333 399.214966 141.329956 C 396.562134 140.056641 394.439941 138.234985 392.848267 135.865112 C 391.256592 133.495239 390.460693 130.647888 390.460693 127.322998 C 390.460693 122.300293 392.459106 118.179565 396.456055 114.960815 C 400.453003 111.742004 406.589722 110.13269 414.866699 110.13269 L 427.706421 110.13269 L 427.706421 109.283752 C 427.706421 104.544006 426.539185 101.166138 424.204712 99.149963 C 421.870117 97.133789 418.297729 96.125732 413.487183 96.125732 C 410.516113 96.125732 407.916382 96.390991 405.687866 96.92157 C 403.459473 97.452148 401.35498 98.035767 399.374146 98.672485 C 398.808228 98.813904 398.348389 98.884705 397.994629 98.884705 C 396.933472 98.884705 394.988159 91.598206 396.827515 90.820068 C 399.303467 89.758972 402.044678 88.856995 405.05127 88.114197 C 408.057739 87.371338 411.435669 87 415.185059 87 C 420.349243 87 424.55835 88.025696 427.8125 90.077209 C 431.06665 92.128845 433.471924 94.746216 435.028198 97.929626 C 436.584595 101.113037 437.362671 104.437927 437.362671 107.904297 L 437.362671 137.934326 C 437.362671 139.278442 436.885254 140.410339 435.930176 141.329956 C 434.97522 142.249573 430.005493 142.249573 429.085815 141.329956 C 428.166138 140.410339 427.706421 139.278442 427.706421 137.934326 L 427.706421 135.175354 C 425.796387 137.156189 423.249634 138.995422 420.066162 140.693237 C 416.882813 142.391052 412.779907 143.23999 407.757202 143.23999 Z M 453.598022 140.934326 L 453.598022 95.411743 C 453.598022 93.996948 463.254272 93.996948 463.254272 95.411743 L 463.254272 140.934326 C 463.254272 142.278442 453.598022 142.278442 453.598022 140.934326 Z M 411.36499 134.750916 C 414.689819 134.750916 417.80249 133.937378 420.702881 132.310364 C 423.603394 130.683228 425.937744 128.843994 427.706421 126.79248 L 427.706421 117.878967 L 416.140137 117.878967 C 411.18811 117.878967 407.279663 118.515625 404.414551 119.789001 C 401.549438 121.062378 400.117065 123.219971 400.117065 126.261902 C 400.117065 128.525635 400.912842 130.506409 402.504517 132.204224 C 404.096191 133.902039 407.049683 134.750916 411.36499 134.750916 Z M 166.719971 110.900024 L 186.61499 110.900024 C 192.36499 110.900024 196.773315 110.114197 199.839966 108.54248 C 202.906738 106.970825 205.015015 104.977539 206.165039 102.5625 C 207.314941 100.147461 207.890015 97.713379 207.890015 95.26001 C 207.890015 92.72998 207.314941 90.276672 206.165039 87.900024 C 205.015015 85.523315 202.906738 83.549194 199.839966 81.977478 C 196.773315 80.405823 192.36499 79.619995 186.61499 79.619995 L 166.719971 79.619995 L 166.719971 110.900024 Z M 242.719971 110.900024 L 262.61499 110.900024 C 268.36499 110.900024 272.773315 110.114197 275.839966 108.54248 C 278.906738 106.970825 281.015015 104.977539 282.165039 102.5625 C 283.314941 100.147461 283.890015 97.713379 283.890015 95.26001 C 283.890015 92.72998 283.314941 90.276672 282.165039 87.900024 C 281.015015 85.523315 278.906738 83.549194 275.839966 81.977478 C 272.773315 80.405823 268.36499 79.619995 262.61499 79.619995 L 242.719971 79.619995 L 242.719971 110.900024 Z M 454.842804 78.082581 L 448.784058 76.399742 C 447.719482 76.062393 447.719482 74.605217 448.784393 74.326942 L 454.84314 72.587112 C 455.180603 72.475372 455.46109 72.194878 455.572815 71.857437 L 457.312653 65.798676 C 457.647888 64.73378 459.107239 64.73378 459.387695 65.798676 L 461.070526 71.855194 C 461.182281 72.19265 461.462769 72.473122 461.800201 72.584869 L 467.913391 74.324699 C 468.978271 74.65992 468.978271 76.11927 467.913391 76.399742 L 461.856873 78.082581 C 461.519409 78.194321 461.238953 78.474815 461.127197 78.812256 L 459.38736 84.871017 C 459.052155 85.935913 457.592804 85.935913 457.312317 84.871017 L 455.572479 78.812256 C 455.460754 78.4748 455.180267 78.194328 454.842804 78.082581 Z"/>
</svg>
